<svg width="399" height="173" viewBox="0 0 399 173" fill="none" xmlns="http://www.w3.org/2000/svg">
<g opacity="0.6">
<path opacity="0.26" d="M398.732 149.566H0V160.392H398.732V149.566Z" fill="#E73201"/>
<path d="M275.173 60.534L192.971 57.358L191.865 26.3262H218.89C229.13 26.3262 239.037 29.954 246.849 36.5652L275.173 60.534Z" fill="#E73201"/>
<path d="M192.97 57.358L137.27 55.206C128.72 54.8765 120.28 53.1585 112.285 50.117L80.437 38.0117C87.6415 30.543 97.5725 26.3262 107.953 26.3262H191.863L192.97 57.358Z" fill="#E73201"/>
<path opacity="0.4" d="M196.436 70.1245L190.567 65.4265L225.358 22.0527L234.045 23.2338L196.436 70.1245Z" fill="#E73201"/>
<path d="M160.561 71.394L146.068 60.846L174.949 21.2402L195.977 22.8297L160.561 71.394Z" fill="#E73201"/>
<path d="M195.492 26.3262H190.567V57.361H195.492V26.3262Z" fill="#E73201"/>
<path d="M138.771 25.714L134.225 23.8203L121.909 53.327L126.454 55.2205L138.771 25.714Z" fill="#E73201"/>
<path d="M29.0125 88.1211L19.9954 99.3836V133.991H386.243C386.243 133.991 386.244 112.568 378.75 88.1241H29.0125V88.1211Z" fill="#E73201"/>
<mask id="mask0_3015_2381" style="mask-type:luminance" maskUnits="userSpaceOnUse" x="19" y="17" width="366" height="99">
<g opacity="0.6">
<g opacity="0.6">
<path d="M383.723 109.074C381.615 96.9165 377.743 81.839 370.634 67.465C370.634 67.465 346.05 59.037 292.057 56.7125L249.517 29.3377C237.204 21.4142 222.872 17.2031 208.227 17.2031H55.1765L64.077 25.249C64.077 25.249 39.0689 40.0696 30.1685 86.651L19.9954 99.3545V109.077V115.895H49.3443C54.9725 101.037 69.346 90.474 86.1895 90.474C103.033 90.474 117.404 101.04 123.035 115.895H285.823C291.451 101.037 305.824 90.474 322.668 90.474C338.478 90.474 352.111 99.783 358.381 113.213C359.146 114.851 360.792 115.895 362.602 115.895H384.775C384.484 113.752 384.136 111.472 383.723 109.074ZM137.265 55.202C128.715 54.8725 120.276 53.152 112.28 50.113L80.433 38.0077C87.6345 30.5421 97.5685 26.3222 107.949 26.3222H218.884C229.125 26.3222 239.031 29.95 246.844 36.5612L275.164 60.527L137.265 55.202Z" fill="white"/>
</g>
</g>
</mask>
<g mask="url(#mask0_3015_2381)">
<path d="M383.672 114.032C381.468 100.457 377.42 83.621 369.985 67.57C369.985 67.57 344.273 58.162 287.805 55.5635L243.315 24.9952C230.438 16.1473 215.446 11.4434 200.13 11.4434H40.0705L49.3796 20.4284C49.3796 20.4284 23.2242 36.9782 13.9151 88.9895L3.27489 103.175V114.032V121.646H33.9724C39.8603 105.056 54.891 93.259 72.505 93.259C90.119 93.259 105.149 105.056 111.037 121.646H281.284C287.172 105.056 302.202 93.259 319.817 93.259C337.433 93.259 352.46 105.056 358.348 121.646H384.77C384.469 119.255 384.107 116.706 383.672 114.032Z" fill="#E73201"/>
</g>
<mask id="mask1_3015_2381" style="mask-type:luminance" maskUnits="userSpaceOnUse" x="19" y="17" width="366" height="99">
<g opacity="0.6">
<g opacity="0.6">
<path d="M383.723 109.074C381.615 96.9165 377.743 81.839 370.634 67.465C370.634 67.465 346.05 59.037 292.057 56.7125L249.517 29.3377C237.204 21.4142 222.872 17.2031 208.227 17.2031H55.1765L64.077 25.249C64.077 25.249 39.0689 40.0696 30.1685 86.651L19.9954 99.3545V109.077V115.895H49.3443C54.9725 101.037 69.346 90.474 86.1895 90.474C103.033 90.474 117.404 101.04 123.035 115.895H285.823C291.451 101.037 305.824 90.474 322.668 90.474C338.478 90.474 352.111 99.783 358.381 113.213C359.146 114.851 360.792 115.895 362.602 115.895H384.775C384.484 113.752 384.136 111.472 383.723 109.074ZM137.265 55.202C128.715 54.8725 120.276 53.152 112.28 50.113L80.433 38.0077C87.6345 30.5421 97.5685 26.3222 107.949 26.3222H218.884C229.125 26.3222 239.031 29.95 246.844 36.5612L275.164 60.527L137.265 55.202Z" fill="white"/>
</g>
</g>
</mask>
<g mask="url(#mask1_3015_2381)">
<path d="M100.016 148.624C116.859 148.624 135.991 115.895 144.489 117.659L301.24 144.567C306.868 129.709 329.012 163.78 345.86 163.78C362.702 163.78 375.471 135.122 381.099 149.977L407.356 125.755C407.067 123.614 405.591 113.238 405.176 110.841C403.068 98.683 399.197 83.606 392.09 69.232C392.09 69.232 367.504 60.804 313.513 58.4795L270.971 31.1046C258.659 23.1811 244.326 16.4941 229.681 16.4941H76.631L85.531 27.0131C85.531 27.0131 60.666 43.4696 51.766 90.051L41.4494 101.118V110.841V117.659L66.0315 144.115C71.6595 129.26 83.1725 148.624 100.016 148.624Z" fill="#E73201"/>
</g>
<mask id="mask2_3015_2381" style="mask-type:luminance" maskUnits="userSpaceOnUse" x="19" y="17" width="366" height="99">
<g opacity="0.6">
<g opacity="0.6">
<path d="M383.723 109.074C381.615 96.9165 377.743 81.839 370.634 67.465C370.634 67.465 346.05 59.037 292.057 56.7125L249.517 29.3377C237.204 21.4142 222.872 17.2031 208.227 17.2031H55.1765L64.077 25.249C64.077 25.249 39.0689 40.0696 30.1685 86.651L19.9954 99.3545V109.077V115.895H49.3443C54.9725 101.037 69.346 90.474 86.1895 90.474C103.033 90.474 117.404 101.04 123.035 115.895H285.823C291.451 101.037 305.824 90.474 322.668 90.474C338.478 90.474 352.111 99.783 358.381 113.213C359.146 114.851 360.792 115.895 362.602 115.895H384.775C384.484 113.752 384.136 111.472 383.723 109.074ZM137.265 55.202C128.715 54.8725 120.276 53.152 112.28 50.113L80.433 38.0077C87.6345 30.5421 97.5685 26.3222 107.949 26.3222H218.884C229.125 26.3222 239.031 29.95 246.844 36.5612L275.164 60.527L137.265 55.202Z" fill="white"/>
</g>
</g>
</mask>
<g mask="url(#mask2_3015_2381)">
<path d="M360.375 81.4257H376.093V77.5762H356.521C356.521 79.7022 358.247 81.4257 360.375 81.4257Z" fill="#E73201"/>
</g>
<mask id="mask3_3015_2381" style="mask-type:luminance" maskUnits="userSpaceOnUse" x="19" y="17" width="366" height="99">
<g opacity="0.6">
<g opacity="0.6">
<path d="M383.723 109.074C381.615 96.9165 377.743 81.839 370.634 67.465C370.634 67.465 346.05 59.037 292.057 56.7125L249.517 29.3377C237.204 21.4142 222.872 17.2031 208.227 17.2031H55.1765L64.077 25.249C64.077 25.249 39.0689 40.0696 30.1685 86.651L19.9954 99.3545V109.077V115.895H49.3443C54.9725 101.037 69.346 90.474 86.1895 90.474C103.033 90.474 117.404 101.04 123.035 115.895H285.823C291.451 101.037 305.824 90.474 322.668 90.474C338.478 90.474 352.111 99.783 358.381 113.213C359.146 114.851 360.792 115.895 362.602 115.895H384.775C384.484 113.752 384.136 111.472 383.723 109.074ZM137.265 55.202C128.715 54.8725 120.276 53.152 112.28 50.113L80.433 38.0077C87.6345 30.5421 97.5685 26.3222 107.949 26.3222H218.884C229.125 26.3222 239.031 29.95 246.844 36.5612L275.164 60.527L137.265 55.202Z" fill="white"/>
</g>
</g>
</mask>
<g mask="url(#mask3_3015_2381)">
<path d="M379.718 66.9922H348.133L345.723 77.7532H379.718" fill="#E73201"/>
<mask id="mask4_3015_2381" style="mask-type:luminance" maskUnits="userSpaceOnUse" x="345" y="66" width="35" height="12">
<g opacity="0.6">
<g opacity="0.6">
<path d="M379.718 66.9922H348.133L345.723 77.7532H379.718" fill="white"/>
</g>
</g>
</mask>
<g mask="url(#mask4_3015_2381)">
<path d="M384.062 64.8496H352.475L350.064 75.6076H384.062" fill="white"/>
</g>
</g>
<mask id="mask5_3015_2381" style="mask-type:luminance" maskUnits="userSpaceOnUse" x="19" y="17" width="366" height="99">
<g opacity="0.6">
<g opacity="0.6">
<path d="M383.723 109.074C381.615 96.9165 377.743 81.839 370.634 67.465C370.634 67.465 346.05 59.037 292.057 56.7125L249.517 29.3377C237.204 21.4142 222.872 17.2031 208.227 17.2031H55.1765L64.077 25.249C64.077 25.249 39.0689 40.0696 30.1685 86.651L19.9954 99.3545V109.077V115.895H49.3443C54.9725 101.037 69.346 90.474 86.1895 90.474C103.033 90.474 117.404 101.04 123.035 115.895H285.823C291.451 101.037 305.824 90.474 322.668 90.474C338.478 90.474 352.111 99.783 358.381 113.213C359.146 114.851 360.792 115.895 362.602 115.895H384.775C384.484 113.752 384.136 111.472 383.723 109.074ZM137.265 55.202C128.715 54.8725 120.276 53.152 112.28 50.113L80.433 38.0077C87.6345 30.5421 97.5685 26.3222 107.949 26.3222H218.884C229.125 26.3222 239.031 29.95 246.844 36.5612L275.164 60.527L137.265 55.202Z" fill="white"/>
</g>
</g>
</mask>
<g mask="url(#mask5_3015_2381)">
<path d="M205.826 95.1191H193.772V115.889H205.826V95.1191Z" fill="#E73201"/>
</g>
<mask id="mask6_3015_2381" style="mask-type:luminance" maskUnits="userSpaceOnUse" x="19" y="17" width="366" height="99">
<g opacity="0.6">
<g opacity="0.6">
<path d="M383.723 109.074C381.615 96.9165 377.743 81.839 370.634 67.465C370.634 67.465 346.05 59.037 292.057 56.7125L249.517 29.3377C237.204 21.4142 222.872 17.2031 208.227 17.2031H55.1765L64.077 25.249C64.077 25.249 39.0689 40.0696 30.1685 86.651L19.9954 99.3545V109.077V115.895H49.3443C54.9725 101.037 69.346 90.474 86.1895 90.474C103.033 90.474 117.404 101.04 123.035 115.895H285.823C291.451 101.037 305.824 90.474 322.668 90.474C338.478 90.474 352.111 99.783 358.381 113.213C359.146 114.851 360.792 115.895 362.602 115.895H384.775C384.484 113.752 384.136 111.472 383.723 109.074ZM137.265 55.202C128.715 54.8725 120.276 53.152 112.28 50.113L80.433 38.0077C87.6345 30.5421 97.5685 26.3222 107.949 26.3222H218.884C229.125 26.3222 239.031 29.95 246.844 36.5612L275.164 60.527L137.265 55.202Z" fill="white"/>
</g>
</g>
</mask>
<g mask="url(#mask6_3015_2381)">
<path d="M326.266 180.281C354.161 180.281 376.775 157.689 376.775 129.821C376.775 101.953 354.161 79.3613 326.266 79.3613C298.369 79.3613 275.755 101.953 275.755 129.821C275.755 157.689 298.369 180.281 326.266 180.281Z" fill="#E73201"/>
</g>
<mask id="mask7_3015_2381" style="mask-type:luminance" maskUnits="userSpaceOnUse" x="19" y="17" width="366" height="99">
<g opacity="0.6">
<g opacity="0.6">
<path d="M383.723 109.074C381.615 96.9165 377.743 81.839 370.634 67.465C370.634 67.465 346.05 59.037 292.057 56.7125L249.517 29.3377C237.204 21.4142 222.872 17.2031 208.227 17.2031H55.1765L64.077 25.249C64.077 25.249 39.0689 40.0696 30.1685 86.651L19.9954 99.3545V109.077V115.895H49.3443C54.9725 101.037 69.346 90.474 86.1895 90.474C103.033 90.474 117.404 101.04 123.035 115.895H285.823C291.451 101.037 305.824 90.474 322.668 90.474C338.478 90.474 352.111 99.783 358.381 113.213C359.146 114.851 360.792 115.895 362.602 115.895H384.775C384.484 113.752 384.136 111.472 383.723 109.074ZM137.265 55.202C128.715 54.8725 120.276 53.152 112.28 50.113L80.433 38.0077C87.6345 30.5421 97.5685 26.3222 107.949 26.3222H218.884C229.125 26.3222 239.031 29.95 246.844 36.5612L275.164 60.527L137.265 55.202Z" fill="white"/>
</g>
</g>
</mask>
<g mask="url(#mask7_3015_2381)">
<path d="M382.11 99.4844H371.672L364.558 118.653H386.242L382.11 99.4844Z" fill="#E73201"/>
</g>
<mask id="mask8_3015_2381" style="mask-type:luminance" maskUnits="userSpaceOnUse" x="19" y="17" width="366" height="99">
<g opacity="0.6">
<g opacity="0.6">
<path d="M383.723 109.074C381.615 96.9165 377.743 81.839 370.634 67.465C370.634 67.465 346.05 59.037 292.057 56.7125L249.517 29.3377C237.204 21.4142 222.872 17.2031 208.227 17.2031H55.1765L64.077 25.249C64.077 25.249 39.0689 40.0696 30.1685 86.651L19.9954 99.3545V109.077V115.895H49.3443C54.9725 101.037 69.346 90.474 86.1895 90.474C103.033 90.474 117.404 101.04 123.035 115.895H285.823C291.451 101.037 305.824 90.474 322.668 90.474C338.478 90.474 352.111 99.783 358.381 113.213C359.146 114.851 360.792 115.895 362.602 115.895H384.775C384.484 113.752 384.136 111.472 383.723 109.074ZM137.265 55.202C128.715 54.8725 120.276 53.152 112.28 50.113L80.433 38.0077C87.6345 30.5421 97.5685 26.3222 107.949 26.3222H218.884C229.125 26.3222 239.031 29.95 246.844 36.5612L275.164 60.527L137.265 55.202Z" fill="white"/>
</g>
</g>
</mask>
<g mask="url(#mask8_3015_2381)">
<path d="M36.9408 62.9294L60.5655 59.4414L62.0045 66.4199L31.6017 79.3479C32.1416 76.6414 32.9006 73.6259 33.9808 70.3979C34.9031 67.6304 35.922 65.1369 36.9408 62.9294Z" fill="#E73201"/>
<mask id="mask9_3015_2381" style="mask-type:luminance" maskUnits="userSpaceOnUse" x="31" y="59" width="32" height="21">
<g opacity="0.6">
<g opacity="0.6">
<path d="M36.9408 62.9348L60.5655 59.4473L62.0045 66.4258L31.6017 79.3538C32.1416 76.6473 32.9006 73.6318 33.9808 70.4033C34.9031 67.6358 35.922 65.1423 36.9408 62.9348Z" fill="white"/>
</g>
</g>
</mask>
<g mask="url(#mask9_3015_2381)">
<path d="M34.1328 60.0773L57.7575 56.5898L59.1965 63.5683L28.7937 76.4963C29.3338 73.7898 30.0928 70.7743 31.1728 67.5458C32.0953 64.7783 33.114 62.2853 34.1328 60.0773Z" fill="white"/>
</g>
</g>
<mask id="mask10_3015_2381" style="mask-type:luminance" maskUnits="userSpaceOnUse" x="19" y="17" width="366" height="99">
<g opacity="0.6">
<g opacity="0.6">
<path d="M383.723 109.074C381.615 96.9165 377.743 81.839 370.634 67.465C370.634 67.465 346.05 59.037 292.057 56.7125L249.517 29.3377C237.204 21.4142 222.872 17.2031 208.227 17.2031H55.1765L64.077 25.249C64.077 25.249 39.0689 40.0696 30.1685 86.651L19.9954 99.3545V109.077V115.895H49.3443C54.9725 101.037 69.346 90.474 86.1895 90.474C103.033 90.474 117.404 101.04 123.035 115.895H285.823C291.451 101.037 305.824 90.474 322.668 90.474C338.478 90.474 352.111 99.783 358.381 113.213C359.146 114.851 360.792 115.895 362.602 115.895H384.775C384.484 113.752 384.136 111.472 383.723 109.074ZM137.265 55.202C128.715 54.8725 120.276 53.152 112.28 50.113L80.433 38.0077C87.6345 30.5421 97.5685 26.3222 107.949 26.3222H218.884C229.125 26.3222 239.031 29.95 246.844 36.5612L275.164 60.527L137.265 55.202Z" fill="white"/>
</g>
</g>
</mask>
<g mask="url(#mask10_3015_2381)">
<path d="M46.8498 77.1536L28.0098 84.5381L26.6028 80.9536L49.0305 72.1641C49.807 74.1446 48.832 76.3781 46.8498 77.1536Z" fill="#E73201"/>
</g>
<mask id="mask11_3015_2381" style="mask-type:luminance" maskUnits="userSpaceOnUse" x="19" y="17" width="366" height="99">
<g opacity="0.6">
<g opacity="0.6">
<path d="M383.723 109.074C381.615 96.9165 377.743 81.839 370.634 67.465C370.634 67.465 346.05 59.037 292.057 56.7125L249.517 29.3377C237.204 21.4142 222.872 17.2031 208.227 17.2031H55.1765L64.077 25.249C64.077 25.249 39.0689 40.0696 30.1685 86.651L19.9954 99.3545V109.077V115.895H49.3443C54.9725 101.037 69.346 90.474 86.1895 90.474C103.033 90.474 117.404 101.04 123.035 115.895H285.823C291.451 101.037 305.824 90.474 322.668 90.474C338.478 90.474 352.111 99.783 358.381 113.213C359.146 114.851 360.792 115.895 362.602 115.895H384.775C384.484 113.752 384.136 111.472 383.723 109.074ZM137.265 55.202C128.715 54.8725 120.276 53.152 112.28 50.113L80.433 38.0077C87.6345 30.5421 97.5685 26.3222 107.949 26.3222H218.884C229.125 26.3222 239.031 29.95 246.844 36.5612L275.164 60.527L137.265 55.202Z" fill="white"/>
</g>
</g>
</mask>
<g mask="url(#mask11_3015_2381)">
<path d="M82.861 79.3613C71.062 79.3613 60.2145 83.4148 51.6175 90.1893C50.4295 94.5723 47.157 107.322 46.8068 115.896L35.7959 119.827L33.6648 118.407C32.8154 122.076 32.3513 125.893 32.3513 129.818C32.3513 157.686 54.966 180.278 82.861 180.278C110.756 180.278 133.37 157.686 133.37 129.818C133.37 101.95 110.756 79.3613 82.861 79.3613Z" fill="#E73201"/>
<path d="M46.8019 115.896C47.1523 107.325 50.4245 94.5725 51.6125 90.1895C42.7503 97.174 36.2902 107.054 33.6601 118.41L35.791 119.83L46.8019 115.896Z" fill="#E73201"/>
</g>
<path d="M103.893 129.82C103.893 114.072 91.1125 101.305 75.349 101.305C59.5855 101.305 46.8058 114.072 46.8058 129.82C46.8058 145.568 59.5855 158.335 75.349 158.335C82.4045 158.335 84.115 158.292 90.733 158.12C98.8075 157.907 103.893 138.516 103.893 129.82Z" fill="#E73201"/>
<path d="M87.7455 158.335C103.509 158.335 116.288 145.569 116.288 129.82C116.288 114.072 103.509 101.305 87.7455 101.305C71.9815 101.305 59.202 114.072 59.202 129.82C59.202 145.569 71.9815 158.335 87.7455 158.335Z" fill="#E73201"/>
<path d="M87.744 151.275C99.603 151.275 109.217 141.671 109.217 129.823C109.217 117.976 99.603 108.371 87.744 108.371C75.8845 108.371 66.2705 117.976 66.2705 129.823C66.2705 141.671 75.8845 151.275 87.744 151.275Z" fill="#E73201"/>
<mask id="mask12_3015_2381" style="mask-type:luminance" maskUnits="userSpaceOnUse" x="66" y="108" width="44" height="44">
<g opacity="0.6">
<g opacity="0.6">
<path d="M87.744 151.269C99.603 151.269 109.217 141.665 109.217 129.818C109.217 117.97 99.603 108.365 87.744 108.365C75.8845 108.365 66.2705 117.97 66.2705 129.818C66.2705 141.665 75.8845 151.269 87.744 151.269Z" fill="white"/>
</g>
</g>
</mask>
<g mask="url(#mask12_3015_2381)">
<path d="M110.195 138.123L92.0785 129.593C89.7545 128.499 87.1245 128.82 85.166 130.202L96.1245 135.361L92.966 141.348L75.3515 133.055L76.794 129.995C80.002 123.192 88.152 120.264 94.9625 123.472L111.271 131.15" fill="#E73201"/>
</g>
<path d="M344.374 129.82C344.374 114.072 331.593 101.305 315.831 101.305C300.067 101.305 287.287 114.072 287.287 129.82C287.287 145.568 300.067 158.335 315.831 158.335C322.886 158.335 324.597 158.292 331.214 158.12C339.289 157.907 344.374 138.516 344.374 129.82Z" fill="#E73201"/>
<path d="M328.22 158.335C343.984 158.335 356.763 145.569 356.763 129.82C356.763 114.072 343.984 101.305 328.22 101.305C312.456 101.305 299.677 114.072 299.677 129.82C299.677 145.569 312.456 158.335 328.22 158.335Z" fill="#E73201"/>
<path d="M328.224 151.275C340.084 151.275 349.698 141.671 349.698 129.823C349.698 117.976 340.084 108.371 328.224 108.371C316.366 108.371 306.751 117.976 306.751 129.823C306.751 141.671 316.366 151.275 328.224 151.275Z" fill="#E73201"/>
<mask id="mask13_3015_2381" style="mask-type:luminance" maskUnits="userSpaceOnUse" x="306" y="108" width="44" height="44">
<g opacity="0.6">
<g opacity="0.6">
<path d="M328.224 151.269C340.084 151.269 349.698 141.665 349.698 129.818C349.698 117.97 340.084 108.365 328.224 108.365C316.366 108.365 306.751 117.97 306.751 129.818C306.751 141.665 316.366 151.269 328.224 151.269Z" fill="white"/>
</g>
</g>
</mask>
<g mask="url(#mask13_3015_2381)">
<path d="M350.676 138.123L332.56 129.593C330.236 128.499 327.606 128.82 325.647 130.202L336.605 135.361L333.447 141.348L315.833 133.055L317.275 129.995C320.482 123.192 328.633 120.264 335.444 123.472L351.752 131.15" fill="#E73201"/>
</g>
<path d="M126.337 71.3097H146.468V68.8602C146.468 67.5067 145.37 66.4102 144.016 66.4102H131.242C128.533 66.4102 126.337 68.6032 126.337 71.3097Z" fill="#E73201"/>
<path d="M200.277 71.3097H220.408V68.8602C220.408 67.5067 219.309 66.4102 217.956 66.4102H205.181C202.472 66.4102 200.277 68.6032 200.277 71.3097Z" fill="#E73201"/>
<path d="M92.69 74.3707H74.2965V65.3682C74.2965 61.6267 77.3325 58.5942 81.078 58.5942H92.69V74.3707Z" fill="#E73201"/>
<path d="M193.034 56.291V133.96" stroke="#E73201" stroke-width="2.03445" stroke-miterlimit="10"/>
<path d="M124.844 52.8398L114.695 63.3148C112.858 65.3533 111.842 67.9983 111.842 70.7398V103.075" stroke="#E73201" stroke-width="2.03445" stroke-miterlimit="10"/>
<path d="M46.5683 133.961C46.399 132.605 46.3085 131.223 46.3085 129.823C46.3085 110.987 62.1535 95.7201 81.7 95.7201C101.246 95.7201 117.091 110.99 117.091 129.823C117.091 131.226 117.001 132.605 116.832 133.961H292.192C292.023 132.605 291.932 131.223 291.932 129.823C291.932 110.987 307.777 95.7201 327.324 95.7201C346.871 95.7201 362.716 110.99 362.716 129.823C362.716 131.226 362.626 132.605 362.456 133.961H392.972C392.972 133.961 392.972 126.738 391.452 115.898H365.262C359.426 101.039 344.524 90.4766 327.061 90.4766C309.6 90.4766 294.696 101.042 288.862 115.898H120.092C114.257 101.039 99.355 90.4766 81.8925 90.4766C64.4305 90.4766 49.5283 101.042 43.693 115.898H13.2611V133.961H46.5683Z" fill="#E73201"/>
<path d="M236.383 79.1981C227.523 79.2101 218.66 79.2216 209.801 79.2331C207.299 79.2361 204.8 79.2391 202.298 79.2421C201.736 79.2421 201.399 79.8576 201.668 80.3386C203.922 84.3861 207.129 87.8511 210.917 90.5106C214.67 93.1466 219.032 94.9841 223.562 95.7481C229.252 96.7076 234.952 95.7626 240.595 94.9316C243.578 94.4911 246.558 94.0511 249.543 93.6136C252.155 93.2286 254.814 92.9166 257.324 92.0646C259.671 91.2686 261.814 90.0061 263.301 87.9881C264.614 86.2061 265.329 83.9081 264.89 81.7061C264.783 81.1636 264.585 80.6446 264.343 80.1491C264.226 79.9156 263.957 79.7991 263.711 79.7871C258.318 79.5161 252.917 79.3236 247.513 79.2156C242.109 79.1081 236.71 79.0756 231.307 79.1281C228.253 79.1576 225.202 79.2131 222.149 79.2946C221.212 79.3206 221.209 80.7791 222.149 80.7526C227.55 80.6096 232.952 80.5456 238.356 80.5661C243.76 80.5836 249.163 80.6826 254.56 80.8636C257.611 80.9656 260.661 81.0941 263.708 81.2456C263.498 81.1261 263.289 81.0036 263.078 80.8841C263.949 82.6456 263.554 84.7216 262.611 86.3691C261.513 88.2856 259.712 89.5861 257.68 90.3851C255.348 91.3006 252.843 91.6626 250.38 92.0241C247.492 92.4496 244.605 92.8756 241.721 93.3011C236.248 94.1091 230.661 95.1766 225.112 94.5116C220.791 93.9956 216.602 92.4206 212.93 90.1021C209.267 87.7866 206.084 84.6836 203.764 81.0181C203.469 80.5541 203.193 80.0821 202.924 79.6006C202.713 79.9651 202.504 80.3326 202.292 80.6971C211.153 80.6856 220.015 80.6741 228.874 80.6621C231.376 80.6591 233.875 80.6566 236.377 80.6536C237.323 80.6536 237.323 79.1956 236.383 79.1981Z" fill="#E73201"/>
<path d="M193.321 57.3496L275.171 60.5226V121.642H193.092L193.321 57.3496Z" fill="#E73201"/>
<mask id="mask14_3015_2381" style="mask-type:luminance" maskUnits="userSpaceOnUse" x="193" y="27" width="85" height="102">
<g opacity="0.6">
<g opacity="0.6">
<path d="M195.495 33.3737V70.1275L202.384 128.202L277.117 121.287L266.273 44.855L223.471 27.7773H193.092L195.495 33.3737Z" fill="white"/>
</g>
</g>
</mask>
<g mask="url(#mask14_3015_2381)">
<path d="M247.128 107.343H205.191L204.785 105.451L201.978 92.3887H233.329C240.951 92.3887 247.128 98.5597 247.128 106.174V107.343Z" fill="#E73201"/>
<path d="M221.619 107.337H205.192L193.727 54.8875C202.451 52.983 211.073 58.5035 212.978 67.2205L221.619 107.337Z" fill="#E73201"/>
<path d="M208.77 49.2129L192.971 52.663L189.725 37.822L194.551 36.7692C200.611 35.4452 206.598 39.2802 207.921 45.3343L208.77 49.2129Z" fill="#E73201"/>
</g>
<path d="M233.826 29.6552L232.829 38.6694L240.568 69.2025L238.816 77.9545C238.816 77.9545 247.453 108.295 257.348 110.824L236.481 28.168L233.557 28.5558" fill="#E73201"/>
<path d="M235.888 1.1179e-05C235.888 1.1179e-05 233.17 -0.0291417 231.222 2.89004C231.222 2.89004 230.437 16.8939 233.555 28.5618C233.555 28.5618 252.441 105.843 258.475 117.185H261.231" fill="#E73201"/>
<path d="M261.234 16.8823C261.234 16.8823 244.517 0.53951 235.888 0C235.888 0 234.475 0.440353 235.318 7.8885C236.162 15.3366 241.451 41.166 241.451 41.166L261.234 117.182H279.261C279.261 117.185 283.823 58.4855 261.234 16.8823Z" fill="#E73201"/>
<path d="M268.874 45.754C261.739 44.3602 254.605 42.9691 247.47 41.5751C246.526 41.3914 245.583 41.2047 244.636 41.021C244.047 39.2742 243.463 37.4457 242.899 35.5326C241.746 31.6394 240.66 27.4021 239.729 22.8497C238.439 16.5418 237.653 10.6801 237.199 5.39885C237.134 4.63477 237.885 4.06317 238.611 4.31688C241.828 5.44255 244.368 6.7549 246.198 7.8339C248.983 9.47865 252.713 11.7563 255.872 15.6931C256.517 16.5009 257.143 17.3758 257.726 18.3324C258.622 19.7964 259.305 21.2603 259.825 22.6776C259.988 23.1151 260.135 23.5468 260.266 23.9726L268.874 45.754Z" fill="#E73201"/>
<path d="M245.576 47.7567L259.541 49.2498L259.071 48.0483C258.823 47.4126 258.169 46.8118 257.576 46.6864L249.864 45.0503C247.493 44.543 245.403 45.6423 245.576 47.7567Z" fill="#E73201"/>
<path d="M256.578 43.7876L269.682 46.3422V41.4662C269.682 40.1598 268.862 38.7775 267.793 38.3546L262.443 36.2404C259.39 35.033 256.578 36.809 256.578 40.3668V43.7876Z" fill="#E73201"/>
<path d="M271.217 48.2664L269.142 44.2012L268.006 45.0382L269.399 47.657C269.851 48.4997 270.668 48.7593 271.217 48.2664Z" fill="#E73201"/>
<path opacity="0.4" d="M259.822 22.672L247.469 41.5695C246.523 41.3857 245.579 41.1991 244.633 41.0154C244.044 39.2684 243.46 37.4399 242.896 35.5269L255.868 15.6875C256.515 16.4953 257.14 17.3702 257.723 18.3267C258.619 19.7908 259.302 21.2547 259.822 22.672Z" fill="#E73201"/>
<path d="M156.974 58.502C156.37 60.3595 155.765 62.22 155.158 64.078C146.308 95.623 137.457 127.168 128.609 158.713L136.806 162.099C147.882 129.574 158.956 97.049 170.029 64.524" fill="#E73201"/>
<path d="M223.693 10.5391C223.919 10.5449 226.32 10.6441 227.355 12.4288C228.153 13.8082 227.645 15.3479 227.299 16.3949C227.12 16.9373 226.788 17.7364 225.23 19.7166C224.462 20.6935 223.378 21.9767 221.954 23.4027C221.632 24.6479 221.312 25.8961 220.99 27.1413C220.631 27.0656 220.045 26.8993 219.429 26.4853C218.802 26.0652 218.419 25.5753 218.214 25.2663C217.389 26.007 216.53 26.7536 215.643 27.503C214.478 28.4858 213.332 29.4189 212.201 30.3027C210.864 28.7015 209.525 27.1005 208.188 25.4995C208.698 23.6507 210.149 19.3609 214.18 15.6192C217.87 12.1926 221.826 10.9824 223.693 10.5391Z" fill="#E39184"/>
<path d="M214.459 22.3421L204.353 30.7934C202.048 28.233 199.749 25.6725 197.447 23.1119C201.066 19.8341 204.682 16.5563 208.303 13.2812" fill="#E39184"/>
<path d="M228.63 11.115C225.226 8.6186 221.823 6.11935 218.422 3.62305C216.159 3.78344 213.901 3.94674 211.639 4.10714C210.766 6.0902 209.895 8.0762 209.023 10.0593C207.417 12.6518 205.814 15.2414 204.21 17.8341C204.954 18.5864 205.695 19.3388 206.44 20.0912C208.909 20.0095 211.379 19.928 213.848 19.8463C214.484 16.9038 216.019 14.9673 217.518 14.9644C218.422 14.9614 219.786 15.6672 219.826 16.6034C219.85 17.1254 219.452 17.5541 219.21 17.7757C218.621 18.4785 218.031 19.1813 217.442 19.8842C217.861 20.2954 218.279 20.7066 218.699 21.1178C219.957 19.8025 221.216 18.4872 222.474 17.1691C222.196 14.2033 222.679 13.3517 223.178 13.1272C223.752 12.8676 224.378 13.3372 226.128 13.3401C226.773 13.3401 227.308 13.2788 227.676 13.2176C227.994 12.5148 228.313 11.8149 228.63 11.115Z" fill="#E73201"/>
<path d="M212.217 30.0483C211.145 28.5319 210.074 27.0124 209.003 25.4961C208.696 25.986 208.389 26.4789 208.084 26.9716C209.461 27.9982 210.84 29.0247 212.217 30.0483Z" fill="#E73201"/>
<path d="M224.975 19.8574C223.855 21.2951 222.736 22.7327 221.616 24.1705C221.409 25.162 221.201 26.1535 220.995 27.1451C220.679 27.1188 220.262 27.0489 219.807 26.8534C218.846 26.4452 218.308 25.7395 218.081 25.3982" stroke="#E73201" stroke-width="0.86935" stroke-miterlimit="10"/>
<path d="M221.997 19.0418C221.997 19.0418 221.994 19.0418 221.991 19.0418C221.98 19.0185 222.149 18.7559 222.352 18.4527C222.758 18.3915 223.231 18.3652 223.742 18.441C224.566 18.5606 225.192 18.8989 225.637 19.2168C225.488 19.453 225.339 19.6892 225.19 19.9254C225.19 19.9254 222.953 18.896 221.997 19.0418Z" fill="#E73201"/>
<path d="M215.879 27.3141C215.702 27.0955 215.418 26.6843 215.296 26.1038C215.234 25.8065 215.231 25.5411 215.245 25.3398" stroke="#E73201" stroke-width="0.94675" stroke-miterlimit="10"/>
<path d="M223.287 21.6585C223.287 21.6585 221.982 22.4167 221.251 21.0781" stroke="#E73201" stroke-width="0.46525" stroke-miterlimit="10"/>
<path d="M222.917 21.7412C223.436 21.7412 223.859 21.3196 223.859 20.7993C223.859 20.2791 223.436 19.8574 222.917 19.8574C222.396 19.8574 221.974 20.2791 221.974 20.7993C221.974 21.3196 222.396 21.7412 222.917 21.7412Z" fill="#E73201"/>
<path d="M216.865 17.6914C216.865 17.6914 218.155 18.6042 217.716 19.9078" stroke="#E73201" stroke-width="0.94675" stroke-miterlimit="10"/>
<path d="M180.111 67.4924C187.342 78.6264 194.573 89.7609 201.802 100.895C199.398 122.245 196.992 143.595 194.585 164.944C191.047 164.523 187.509 164.097 183.971 163.673C185.103 144.726 186.235 125.779 187.369 106.835C180.385 96.2614 173.405 85.6869 166.423 75.1094C165.538 73.7154 164.447 71.6014 163.887 68.8544C162.794 63.4914 164.421 59.1139 165.203 57.3379C167.763 58.5799 171.149 60.4409 174.833 63.1469C174.83 63.1439 178.197 64.5439 180.111 67.4924Z" fill="#E73201"/>
<path d="M172.264 37.8605C168.076 42.9378 162.713 49.8493 156.971 58.499C158.833 59.5635 160.704 60.625 162.585 61.6895C164.726 62.8995 167.482 64.454 168.254 64.8795C170.915 66.3525 175.224 68.3995 182.117 70.587C187.184 64.524 192.251 58.461 197.32 52.398C200.011 49.9164 202.704 47.4346 205.397 44.9528C206.71 43.6434 208.024 42.3311 209.337 41.0217C207.615 36.4373 205.887 31.8588 204.158 27.2715C203.082 25.4868 202.005 23.6933 200.927 21.9085C199.673 21.2436 197.593 20.3454 194.986 20.2521C189.96 20.0713 184.635 22.8679 172.264 37.8605Z" fill="#E73201"/>
<path d="M136.801 162.097L138.953 167.936L144.041 171.291L142.955 172.505L126.216 167.971L128.604 158.711" fill="#E73201"/>
<path d="M194.608 161.445L196.508 167.208L202.192 169.409L201.392 170.826L184.07 169.949L184.434 160.395" fill="#E73201"/>
<path d="M238.105 52.3585C238.14 51.641 238.286 50.53 238.826 49.2908C239.305 48.1971 239.916 47.4068 240.37 46.9023C240.51 47.1356 240.651 47.4301 240.741 47.7888C241.048 48.9933 240.561 50.0285 240.37 50.3815C240.37 50.9385 240.37 51.4925 240.37 52.0495" fill="#D98073"/>
<path d="M205.967 50.4165L212.447 62.2125L219.868 58.999L213.25 46.2285L205.967 50.4165Z" fill="#E39184"/>
<path d="M205.928 50.39L213.566 46.5696L207.027 35.3916L201.647 33.2715C199.438 33.3677 197.225 33.4611 195.016 33.5572C195.013 33.7963 195.01 34.0327 195.007 34.2718C196.374 37.2055 197.809 39.3286 198.857 40.7167C200.031 42.2711 200.728 42.9155 202.098 44.674C203.91 46.9954 205.163 49.0397 205.928 50.39Z" fill="#E73201"/>
<path d="M213.547 46.5859L205.426 49.3562L205.916 50.4265L213.547 46.5859Z" fill="#E73201"/>
<path d="M205.929 50.39L203.424 46.4531L207.222 49.5356" fill="#E73201"/>
<path d="M214.256 66.0607L242.145 57.2797L240.411 51.1992L210.315 58.3237L214.256 66.0607Z" fill="#E39184"/>
<path d="M237.817 52.73L243.544 49.0176L251.856 51.887C251.856 51.887 251.966 52.765 249.766 52.657L252.605 54.512C252.605 54.512 253.283 55.8155 249.984 54.512L251.853 56.6115C251.853 56.6115 251.853 57.489 248.554 56.6115C248.554 56.6115 251.357 58.2505 247.124 57.37L241.172 57.1685L237.814 58.157L237.109 53.004L237.817 52.73Z" fill="#E39184"/>
<path d="M243.547 49.0176L240.164 51.234L239.202 51.4995L240.654 57.772L242.143 57.282L245.678 57.192L243.547 49.0176Z" fill="#D98073"/>
</g>
</svg>
